<?xml version="1.0" encoding="utf-8"?>
<!-- Generator: Adobe Illustrator 24.1.2, SVG Export Plug-In . SVG Version: 6.00 Build 0)  -->
<svg version="1.1" id="double_point" xmlns="http://www.w3.org/2000/svg" xmlns:xlink="http://www.w3.org/1999/xlink" x="0px"
	 y="0px" viewBox="0 0 5.3 5.3" style="enable-background:new 0 0 5.3 5.3;" xml:space="preserve">
<g id="double_point__element">
	<path d="M2.7,1.7c-0.5,0-0.9,0.4-0.9,0.9c0,0.5,0.4,0.9,0.9,0.9s0.9-0.4,0.9-0.9C3.6,2.2,3.2,1.7,2.7,1.7z"/>
	<path d="M2.7,0C1.2,0,0,1.2,0,2.7c0,1.5,1.2,2.7,2.7,2.7c1.5,0,2.7-1.2,2.7-2.7C5.3,1.2,4.1,0,2.7,0z M2.7,4.6
		c-1.1,0-1.9-0.9-1.9-1.9c0-1.1,0.9-1.9,1.9-1.9c1.1,0,1.9,0.9,1.9,1.9C4.6,3.7,3.7,4.6,2.7,4.6z"/>
</g>
</svg>
