<?xml version="1.0" encoding="utf-8"?>
<!-- Generator: Adobe Illustrator 24.1.2, SVG Export Plug-In . SVG Version: 6.00 Build 0)  -->
<svg version="1.1" id="hat" xmlns="http://www.w3.org/2000/svg" xmlns:xlink="http://www.w3.org/1999/xlink" x="0px" y="0px"
	 viewBox="0 0 16.6 16.6" style="enable-background:new 0 0 16.6 16.6;" xml:space="preserve">
<g id="hat_x5F__x5F_background">
	<polygon style="fill:#FFFFFF;" points="8.3,10.1 3.2,8.1 3.2,9.8 3.6,11.3 4.6,12.2 6.6,13 9.5,13 12.3,12 13.3,10.7 13.4,8 	"/>
	<polygon style="fill:#FFFFFF;" points="0.7,5.1 8.3,1.8 16,5.1 8.3,8.3 	"/>
</g>
<g id="hat_x5F__x5F_top">
	<path style="fill:#010202;" d="M16.6,6c-0.1-0.2-0.3-0.3-0.5-0.2L8.3,9L0.5,5.8C0.3,5.7,0.1,5.8,0,6s0,0.4,0.2,0.5v0l8,3.4l8.1-3.4
		C16.6,6.4,16.7,6.2,16.6,6z"/>
	<path style="fill:#010202;" d="M0.2,5.6l7.9,3.2h0.3l7.9-3.2c0.1-0.1,0.2-0.2,0.2-0.3c0-0.2-0.1-0.3-0.2-0.3l-8-3.4
		c-0.1,0-0.2,0-0.3,0L0.2,4.9C0.1,4.9,0,5.1,0,5.2C0,5.4,0.1,5.5,0.2,5.6z M8.3,2.3l7,2.9L8.3,8l-7-2.8L8.3,2.3z"/>
</g>
<path id="hat_x5F__x5F_rope" style="fill:#010202;" d="M13.4,14C13.4,14,13.4,14,13.4,14c-0.1-0.4-0.3-0.8-0.7-0.9
	c0-0.9,0.1-1.8,0.1-2.7c0-1.3-0.1-2.6-0.8-3.6C11.5,6,10.6,5.4,9.3,5c-0.1-0.2-0.5-0.4-1-0.4c-0.6,0-1,0.3-1,0.6
	c0,0.3,0.5,0.6,1,0.6c0.2,0,0.3,0,0.5-0.1C10.2,6,11,6.5,11.4,7.2c0.5,0.8,0.7,1.9,0.7,3.2c0,0.8,0,1.7-0.1,2.6
	c-0.4,0.1-0.7,0.5-0.7,1c0,0.1,0,0.1,0,0.2c0,0,0,0,0,0l-0.5,1.9c-0.1,0.2,0.1,0.4,0.3,0.5c0.2,0.1,0.4-0.1,0.5-0.3l0.4-1.4
	c0,0,0.1,0,0.1,0.1l0.1,1.2c0,0.2,0.2,0.4,0.4,0.4c0.2,0,0.4-0.2,0.4-0.4l0-1.2c0,0,0,0,0.1,0l0.2,1.3c0,0.2,0.2,0.3,0.4,0.3
	c0.2,0,0.3-0.2,0.3-0.4L13.4,14z"/>
<path id="hat_x5F__x5F_bottom" style="fill:#010202;" d="M13.8,8.4c0-0.2-0.2-0.4-0.4-0.4c-0.2,0-0.4,0.2-0.4,0.4v1.9h0
	c0,0.3-0.1,0.6-0.3,0.9c-0.6,0.8-2.2,1.5-4.1,1.5v-2.1c0-0.2-0.2-0.4-0.4-0.4c-0.2,0-0.4,0.2-0.4,0.4v2.1c-1.2-0.1-2.2-0.3-3-0.7
	c-0.4-0.2-0.8-0.5-1-0.8c-0.2-0.3-0.3-0.6-0.3-0.9h0V8.4C3.6,8.2,3.4,8,3.2,8C3,8,2.8,8.2,2.8,8.4v2.2c0,0.1,0,0.1,0.1,0.2
	C3,11,3.1,11.3,3.3,11.6c0.9,1.1,2.8,1.8,5,1.8c1.5,0,2.8-0.3,3.8-0.9c0.5-0.3,0.9-0.6,1.2-1c0.3-0.4,0.5-0.8,0.5-1.3c0,0,0,0,0-0.1
	V8.4z"/>
</svg>
