<?xml version="1.0" encoding="utf-8"?>
<!-- Generator: Adobe Illustrator 24.1.2, SVG Export Plug-In . SVG Version: 6.00 Build 0)  -->
<svg version="1.1" id="hobbies__basketball"
	 xmlns="http://www.w3.org/2000/svg" xmlns:xlink="http://www.w3.org/1999/xlink" x="0px" y="0px" viewBox="0 0 24.8 24.8"
	 style="enable-background:new 0 0 24.8 24.8;" xml:space="preserve">
<path id="hobbies__basketball__basket" d="M12.4,0C5.6,0,0,5.5,0,12.4c0,5.4,3.4,9.9,8.2,11.6
	c0.3,0.1,0.5,0.2,0.8,0.3c0.4,0.1,0.9,0.2,1.3,0.3c0.1,0,0.3,0,0.4,0.1c0.3,0,0.6,0.1,0.9,0.1c0.2,0,0.3,0,0.5,0c0.1,0,0.2,0,0.3,0
	c0.1,0,0.2,0,0.3,0c0.2,0,0.3,0,0.5,0c0.3,0,0.6,0,0.9-0.1c0.1,0,0.3,0,0.4-0.1c0.5-0.1,0.9-0.2,1.3-0.3c0.3-0.1,0.5-0.2,0.8-0.3
	c4.8-1.7,8.2-6.3,8.2-11.6C24.8,5.5,19.2,0,12.4,0z M10.8,21.8l-1,0.9l-1.3-1.2l1-0.8L10.8,21.8z M9.7,20.6l1.2-0.9l1.2,0.9L11,21.6
	L9.7,20.6z M11,22.1l1.1,0.9l-1,0.9L10,22.9L11,22.1z M11.3,21.8l1.1-1.1l1.1,1.1l-1.1,0.9L11.3,21.8z M12.6,20.6l1.2-0.9l1.2,0.9
	l-1.2,1L12.6,20.6z M13.8,22.1l1,0.9l-1.1,0.9l-1-0.9L13.8,22.1z M14,21.8l1.3-1l1,0.8L15,22.7L14,21.8z M15.6,20.6l1.4-1.1
	c-0.2,0.5-0.3,1.1-0.5,1.7L15.6,20.6z M15.3,20.4l-1.3-1c0-0.5,0.3-1.2,0.5-1.6h3.2c-0.2,0.3-0.4,0.6-0.6,1.1L15.3,20.4z M13.6,19.5
	l-1.2,0.9l-1.2-0.9c0-0.5-0.3-1.2-0.5-1.6h3.5C14,18.3,13.7,19,13.6,19.5z M10.8,19.5l-1.3,1l-1.9-1.5c-0.2-0.5-0.4-0.8-0.6-1.1h3.2
	C10.4,18.2,10.8,19,10.8,19.5z M9.2,20.6l-0.9,0.6C8.2,20.6,8,20,7.9,19.5L9.2,20.6z M8.5,22L9.6,23L9,23.5c-0.1,0-0.2-0.1-0.3-0.1
	C8.6,22.9,8.6,22.4,8.5,22z M9.3,23.6l0.5-0.4l0.8,0.7C10.2,23.8,9.8,23.7,9.3,23.6z M12.4,24c-0.3,0-0.6,0-0.9,0l0.9-0.8l0.9,0.8
	C13,24,12.7,24,12.4,24z M14.2,23.9l0.8-0.7l0.5,0.4C15,23.7,14.6,23.8,14.2,23.9z M15.8,23.5L15.2,23l1.1-0.9
	c-0.1,0.4-0.1,0.9-0.2,1.4C16,23.4,15.9,23.5,15.8,23.5z M16.7,23.2c0.4-3.3,1.3-4.8,1.7-5.4H20c0.3,0,0.5-0.2,0.5-0.4v-0.1
	c0-0.2-0.2-0.4-0.5-0.4H4.8c-0.3,0-0.5,0.2-0.5,0.4v0.1c0,0.2,0.2,0.4,0.5,0.4h1.5c0.5,0.6,1.4,2,1.7,5.4c-4.3-1.7-7.4-5.9-7.4-10.8
	C0.8,6,6,0.7,12.4,0.7S24,6,24,12.4C24,17.3,21,21.5,16.7,23.2z"/>
<g id="hobbies__basketball__ball">
	<circle id="hobbies__basketball__ball-background" style="fill:#FFFFFF;" cx="11.1" cy="10.2" r="5.1"/>
	<path id="hobbies__basketball__ball-element" d="M11.1,5.1C8.3,5.1,6,7.4,6,10.2c0,2.8,2.3,5.1,5.1,5.1
		c2.8,0,5.1-2.3,5.1-5.1C16.3,7.4,14,5.1,11.1,5.1z M10.6,8.7c1.8,0.8,3.5,2,4.4,3.6c-0.2,0.4-0.5,0.8-0.8,1.1
		c-0.5,0.5-1.1,0.8-1.7,1c-0.4-1.8-1-4.1-2.3-5C10.3,9.1,10.5,8.9,10.6,8.7z M10.7,8.4L10.7,8.4L10.7,8.4l-0.2,0
		C10.3,8.7,10.1,9,9.9,9.3l0,0.2c1.2,0.7,1.9,3.1,2.3,5c0,0,0,0,0,0c-0.2-0.9-0.4-1.9-0.8-2.8c-0.4-1-0.8-1.8-1.5-2.2l-0.1,0
		L9.8,9.6c-0.6,1.1-1.1,2.4-1.2,3.7v0c0,0.2,0,0.4,0,0.5c0,0,0,0,0,0c0-0.2,0-0.3,0-0.5v0c0.2-1.2,0.6-2.5,1.2-3.6l0-0.1L9.7,9.4
		C9.5,9.3,9.2,9.2,8.9,9.2c-0.6,0-1.1,0.3-1.6,0.6c-0.2,0.2-0.4,0.3-0.6,0.5c0,0,0,0,0,0c0.2-0.2,0.4-0.3,0.6-0.5
		c0.5-0.4,1-0.6,1.6-0.6c0.3,0,0.5,0.1,0.8,0.2l0.2-0.1c0.2-0.3,0.3-0.6,0.5-0.8l0-0.1l-0.1-0.1C9.4,7.9,8.5,7.6,7.7,7.5
		c0,0,0,0,0,0c0.8,0.2,1.7,0.5,2.7,0.9l0.2,0c0.1-0.1,0.2-0.2,0.3-0.4l0,0c0.1-0.1,0.2-0.3,0.3-0.4l0-0.1l-0.1-0.1
		C10.3,6.9,10,6.4,9.8,6c0,0,0,0,0,0c0.2,0.4,0.5,0.9,1.3,1.3l0.2,0c0.4-0.5,0.8-0.9,1.2-1.2c0,0,0,0,0,0c-0.4,0.3-0.7,0.7-1.1,1.2
		l-0.1,0.1l0.2,0.1c0.9,0.4,1.7,0.5,2.5,0.5l0,0l0,0C14.3,8,14.6,8,15,8.1c0,0,0,0,0,0C14.6,8.1,14.3,8,13.9,8
		c-0.8-0.1-1.7-0.2-2.5-0.6l-0.2,0c-0.1,0.1-0.2,0.3-0.4,0.5l0,0c-0.1,0.1-0.2,0.2-0.2,0.3L10.7,8.4L10.7,8.4c1.8,0.8,3.5,2,4.5,3.5
		c0,0,0,0,0,0C14.2,10.4,12.4,9.2,10.7,8.4z M11.1,14.6c-0.9,0-1.7-0.3-2.4-0.7c0-0.2,0-0.4,0-0.7v0C9,12.1,9.4,10.9,10,9.8
		c0.5,0.4,1,1.1,1.3,2c0.3,0.9,0.6,1.9,0.8,2.8C11.7,14.6,11.4,14.6,11.1,14.6z M10.4,8C9.6,7.7,8.7,7.4,7.9,7.2C8,7.2,8,7.1,8,7.1
		c0.4-0.4,1-0.8,1.6-1c0.2,0.5,0.5,0.9,1.3,1.3c-0.1,0.1-0.2,0.2-0.2,0.3l0,0C10.6,7.8,10.5,7.9,10.4,8z M9.8,9.1C9.5,9,9.2,9,8.9,9
		C8.3,9,7.7,9.2,7.2,9.6C7,9.7,6.9,9.8,6.8,9.9c0.1-0.8,0.3-1.6,0.8-2.2c0.8,0.2,1.7,0.4,2.6,0.8C10,8.7,9.9,8.9,9.8,9.1z M7.5,10
		c0.4-0.3,0.9-0.5,1.5-0.5c0.2,0,0.4,0,0.6,0.1c-0.6,1.1-1.1,2.4-1.2,3.6v0c0,0.1,0,0.2,0,0.4c-0.1-0.1-0.2-0.1-0.2-0.2
		c-0.7-0.7-1.1-1.6-1.2-2.7C7,10.4,7.2,10.2,7.5,10z M11.1,5.8c0.4,0,0.7,0.1,1.1,0.1c-0.3,0.3-0.7,0.7-1,1.1
		c-0.7-0.4-1-0.7-1.1-1.1C10.4,5.9,10.8,5.8,11.1,5.8z M15.3,11.7c-1-1.5-2.7-2.6-4.4-3.4C11,8.2,11,8.1,11,8.1l0,0
		c0.1-0.1,0.2-0.3,0.3-0.4c0.9,0.4,1.8,0.5,2.5,0.6c0.5,0,0.9,0.1,1.3,0.2c0.2,0.5,0.4,1.1,0.4,1.8C15.5,10.7,15.4,11.2,15.3,11.7z
		 M14.2,7.1c0.2,0.2,0.4,0.5,0.6,0.7c-0.3,0-0.6-0.1-0.9-0.1h0c-0.7-0.1-1.5-0.2-2.2-0.5c0.4-0.4,0.8-0.8,1.1-1.1
		C13.3,6.4,13.8,6.7,14.2,7.1z"/>
</g>
</svg>
