<?xml version="1.0" encoding="utf-8"?>
<!-- Generator: Adobe Illustrator 24.1.2, SVG Export Plug-In . SVG Version: 6.00 Build 0)  -->
<svg version="1.1" id="hobbies__reading" xmlns="http://www.w3.org/2000/svg" xmlns:xlink="http://www.w3.org/1999/xlink"
	 x="0px" y="0px" viewBox="0 0 24.8 24.8" style="enable-background:new 0 0 24.8 24.8;" xml:space="preserve">
<path id="hobbies__reading__background" d="M12.4,0.8C18.8,0.8,24,6,24,12.4S18.8,24,12.4,24S0.8,18.8,0.8,12.4
	S6,0.8,12.4,0.8 M12.4,0C5.6,0,0,5.6,0,12.4c0,6.8,5.6,12.4,12.4,12.4c6.8,0,12.4-5.5,12.4-12.4C24.8,5.6,19.2,0,12.4,0z"/>
<g id="hobbies__reading__last">
	<g id="hobbies__reading__last__book">
		<path d="M5.8,18.4l2.1-0.5c-0.1-0.1-0.1-0.2-0.2-0.3l-2,0.5L5.8,18.4z"/>
		<path d="M8.5,18.4L6,18.9c-0.4,0.1-0.8-0.2-0.9-0.6s0.2-0.8,0.6-0.9l1.8-0.4L7.5,6.9l-4,0.9c0,0,0,0,0,0C3.1,7.9,2.8,8.1,2.6,8.4
			C2.3,9,2.5,9.6,2.5,9.7l2,8.9c0.2,0.7,0.8,1.1,1.5,0.9l4-0.9l-0.8,0C9,18.5,8.7,18.5,8.5,18.4z M7.5,7.2l-0.1,9.4L5.5,17l-2-8.6
			L7.5,7.2z M3,9.5L3,9.5c0,0-0.2-0.5,0-0.8c0,0,0.1-0.1,0.1-0.1l2,8.6c-0.1,0.1-0.2,0.2-0.3,0.3L3,9.5z"/>
	</g>
	<polygon id="hobbies__reading__last__cover" style="fill:#FDFDFD;" points="7.5,16.6 7.5,7.2 3.5,8.4 
		5.5,17 	"/>
</g>
<g id="hobbies__reading__middle">
	<g id="hobbies__reading__middle__book">
		<path d="M10.7,16.8c0-0.1,0-0.2,0-0.3l-1.5,0l0,0.3L10.7,16.8z"/>
		<path d="M9.1,17.4c-0.4,0-0.7-0.3-0.7-0.7c0-0.4,0.3-0.7,0.7-0.7l1.5,0l0.1-0.5H9.2l0.2-8.8l3.1-0.1L11,14l1.5-8L9.3,6
			c0,0,0,0,0,0c-0.4,0-0.8,0.2-1,0.4c-0.4,0.4-0.4,1-0.4,1.2l-0.1,9.1c0,0.7,0.6,1.3,1.3,1.3l1.8,0c-0.1-0.2-0.2-0.3-0.3-0.5
			L9.1,17.4z M8.4,7.5c0,0,0-0.5,0.2-0.8c0,0,0.1-0.1,0.1-0.1l-0.1,8.8c-0.1,0-0.2,0.1-0.4,0.2L8.4,7.5L8.4,7.5z"/>
	</g>
	<polygon id="hobbies__reading__middle__cover" style="fill:#FDFDFD;" points="9.4,6.6 9.2,15.4 10.8,15.4 
		11,14 12.5,6.6 	"/>
</g>
<g id="hobbies__reading__first">
	<g id="hobbies__reading__first__book">
		<path d="M22,6.9l-7.5-1.3c0,0,0,0,0,0c-0.4-0.1-0.8,0-1.1,0.3c-0.5,0.4-0.6,1-0.6,1.1l-1.7,9.5c-0.1,0.7,0.4,1.4,1.1,1.6l7.6,1.4
			l0.1-0.5l-7.6-1.4c-0.4-0.1-0.7-0.5-0.6-0.9s0.5-0.7,0.9-0.6l7.6,1.4L22,6.9z M12.2,15.4c-0.1,0-0.3,0.1-0.4,0.1l1.5-8.4l0,0
			c0,0,0-0.5,0.4-0.8c0,0,0.1-0.1,0.1-0.1L12.2,15.4z M12.7,15.4l1.6-9.2l7.1,1.2l-1.6,9.2L12.7,15.4z"/>
		<rect x="15.7" y="13.8" transform="matrix(0.1748 -0.9846 0.9846 0.1748 -3.9932 29.9198)" width="0.3" height="7"/>
	</g>
	<polygon id="hobbies__reading__first__cover" style="fill:#FDFDFD;" points="14.3,6.2 12.7,15.4 
		19.8,16.7 21.4,7.4 	"/>
</g>
</svg>
