<?xml version="1.0" encoding="utf-8"?>
<!-- Generator: Adobe Illustrator 24.1.2, SVG Export Plug-In . SVG Version: 6.00 Build 0)  -->
<svg version="1.1" id="hobbies__swimming" xmlns="http://www.w3.org/2000/svg" xmlns:xlink="http://www.w3.org/1999/xlink"
	 x="0px" y="0px" viewBox="0 0 24.8 24.8" style="enable-background:new 0 0 24.8 24.8;" xml:space="preserve">
<polygon id="hobbies__swimming__background" style="fill:#FFFFFF;" points="4.7,17.3 7.6,15.4 12.1,14.8 13.2,14.8 
	12.4,12.7 10.1,10.3 8.9,9.4 10.1,9.4 13.2,10.7 15.7,13.9 16,14.1 17.2,12.8 18.9,12.7 20.4,14 20.4,15.8 19.7,16.6 17.1,17.1 
	16,17.7 14,17.7 12.5,17.1 11.4,16.9 9.5,16.7 7.8,17.1 6.2,17.7 4.6,17.7 "/>
<path id="hobbies__swimming__element" d="M12.4,0C5.6,0,0,5.6,0,12.4c0,1.5,0.3,2.9,0.7,4.2l0,0c0,0,0,0,0.1,0.1
	c1.7,4.7,6.3,8.1,11.6,8.1c6.8,0,12.4-5.5,12.4-12.4C24.8,5.6,19.2,0,12.4,0z M12.4,24c-2.7,0-5.1-0.9-7.1-2.4
	c0.4,0,0.7-0.1,0.9-0.1C7,21.4,7.3,21.2,7.8,21c0.5-0.2,1.1-0.3,2.4-0.3c0.9,0,1.4,0.1,1.8,0.1c0.6,0.1,0.8,0.3,1.3,0.5
	c0.5,0.2,1.1,0.3,2.3,0.3c1.6,0,2.3-0.2,3-0.4c0.5-0.2,1-0.3,1.8-0.4C18.3,22.8,15.5,24,12.4,24z M21.2,20c-1.5,0.1-2.2,0.4-2.8,0.6
	c-0.7,0.2-1.2,0.4-2.8,0.4c-0.8,0-1.2-0.1-1.6-0.1c-0.2-0.1-0.4-0.1-0.6-0.2c-0.3-0.1-0.6-0.3-1.1-0.4c-0.5-0.1-1.1-0.2-2.2-0.2
	c-0.9,0-1.5,0.1-2,0.2c-0.7,0.1-1.1,0.4-1.6,0.5c-0.4,0.1-1,0.3-2.1,0.3c-0.1-0.1-0.2-0.2-0.3-0.3c-0.9-0.9-1.7-2-2.3-3.2
	c0.7,0.4,1.8,0.7,3.2,0.7c1.4,0,2.1-0.3,2.6-0.5c0.6-0.2,1-0.4,2.5-0.4c0.7,0,1.2,0.1,1.5,0.1c0.5,0.1,0.7,0.3,1.1,0.5
	c0.4,0.2,1,0.3,1.9,0.3c0.7,0,1.1,0,1.4-0.1c0.3-0.1,0.4-0.1,0.6-0.2c0.2-0.1,0.4-0.2,0.7-0.3c0,0,0,0,0.1,0
	c0.3-0.1,0.7-0.2,1.3-0.2c0.2,0,0.4,0,0.6,0c0,0,0.1,0,0.1,0c1,0,1.8,0.2,2.3,0.4c0.3,0.1,0.4,0.2,0.6,0.3l0.1,0.1l0,0
	C22.2,18.7,21.8,19.4,21.2,20z M13.6,14.7c-0.7-2.5-2.1-4-3.5-4.8C10,9.8,9.8,9.7,9.7,9.6c1.6,0.3,4,1.4,5.9,4.8c0,0.1,0,0.3,0,0.4
	c0,0.9,0.4,1.6,1.1,2.1c-0.2,0.1-0.3,0.2-0.5,0.2c-0.3,0.1-0.6,0.1-1.3,0.1c-0.6,0-1-0.1-1.3-0.1c-0.4-0.1-0.6-0.3-1.1-0.5
	c-0.5-0.2-1.1-0.3-2.2-0.3c-1.5,0-2.2,0.3-2.8,0.5c-0.5,0.2-1,0.4-2.2,0.4c2.6-1.9,5.1-2.2,6.5-2.2c0.4,0,0.8,0,1,0.1
	c0.1,0,0.2,0,0.3,0l0.1,0c0.1,0,0.3,0,0.4-0.1C13.6,15,13.6,14.9,13.6,14.7z M16.3,14.8c0-1,0.8-1.9,1.9-1.9c1,0,1.9,0.8,1.9,1.9
	c0,0.6-0.3,1.2-0.8,1.5c-0.1,0-0.3,0-0.5,0c-0.6,0.1-1,0.1-1.3,0.2C16.8,16.3,16.3,15.7,16.3,14.8z M20.3,16.4
	c0.3-0.4,0.5-1,0.5-1.5c0-1.5-1.2-2.6-2.6-2.6c-1,0-1.8,0.5-2.2,1.3c-2.6-4.2-6-4.8-7.6-4.7c-0.5,0-0.9,0.1-0.9,0.1
	C7.3,8.9,7.2,9,7.2,9.2c0,0.2,0.1,0.3,0.3,0.4l0,0c0.2,0.1,1.3,0.3,2.4,1.1c1,0.7,2.1,1.9,2.7,3.7c-0.2,0-0.5,0-0.9,0
	c-1.7,0-4.7,0.4-7.6,2.8c0,0-0.1,0.1-0.1,0.1c-0.8-0.1-1.5-0.3-2-0.6c-0.3-0.2-0.6-0.3-0.7-0.4l0,0C1,15,0.8,13.7,0.8,12.4
	c0-3.2,1.3-6.1,3.4-8.2c2.1-2.1,5-3.4,8.2-3.4c3.2,0,6.1,1.3,8.2,3.4c2.1,2.1,3.4,5,3.4,8.2c0,1.7-0.4,3.4-1.1,4.8
	C22.7,17,21.8,16.5,20.3,16.4z"/>
</svg>
