<?xml version="1.0" encoding="utf-8"?>
<!-- Generator: Adobe Illustrator 24.1.2, SVG Export Plug-In . SVG Version: 6.00 Build 0)  -->
<svg version="1.1" id="pen" xmlns="http://www.w3.org/2000/svg" xmlns:xlink="http://www.w3.org/1999/xlink" x="0px" y="0px"
	 viewBox="0 0 16.6 16.6" style="enable-background:new 0 0 16.6 16.6;" xml:space="preserve">
<polygon id="pen_x5F__x5F_background" style="fill:#FFFFFF;" points="1.2,15.7 2.3,11.9 5.8,8.3 11.6,2.8 13.1,2 14.5,2.5 15.4,3.7 
	15.2,5 13.4,6.9 9,11.3 5.4,15 4.4,15.4 1.2,16.1 "/>
<path id="pen_x5F__x5F_element" style="fill:#010202;" d="M13.2,1.6c-0.6,0-1.1,0.2-1.5,0.5l0,0l-0.1,0.1l-0.1,0.1l0,0l0,0l-9.6,9.5
	l-1.3,4.8l4.8-1.1L15,5.8c0.1-0.1,0.2-0.2,0.3-0.3c0.2-0.4,0.4-0.8,0.4-1.3C15.7,2.8,14.6,1.6,13.2,1.6z M5.5,13.6l5.9-5.8
	c0.1-0.1,0.1-0.4,0-0.5c-0.1-0.1-0.4-0.1-0.5,0L5,13.1H4l0-1l5.9-5.8c0.1-0.1,0.1-0.4,0-0.5c-0.1-0.1-0.4-0.1-0.5,0l-5.9,5.8l-0.4,0
	l6.9-6.8l2.6,2.3l-7.2,7.2L5.5,13.6z M10.6,4.3l0.2-0.2l2.6,2.3l-0.2,0.2L10.6,4.3z M2.5,12.4l0.8,0l0,1.5l0.3,0v0h1.2l-0.1,1.1
	l-2.5,0.5C2.2,15.3,2,15.1,1.8,15L2.5,12.4z M13.9,5.9l-2.6-2.3l0.3-0.3l1.1,1l0,0l1.5,1.4L13.9,5.9z M14.8,5l-2.5-2.2
	c0.3-0.2,0.6-0.3,0.9-0.3c1,0,1.8,0.8,1.8,1.8C15,4.5,14.9,4.7,14.8,5z"/>
</svg>
