<?xml version="1.0" encoding="utf-8"?>
<!-- Generator: Adobe Illustrator 24.1.2, SVG Export Plug-In . SVG Version: 6.00 Build 0)  -->
<svg version="1.1" id="suitcase" xmlns="http://www.w3.org/2000/svg" xmlns:xlink="http://www.w3.org/1999/xlink" x="0px" y="0px"
	 viewBox="0 0 16.6 16.6" style="enable-background:new 0 0 16.6 16.6;" xml:space="preserve">
<path id="suitcase_x5F__x5F_background" style="fill:#FFFFFF;" d="M14.3,13.7H2.4c-0.6,0-1-0.4-1-1V5.5c0-0.6,0.4-1,1-1h11.9
	c0.6,0,1,0.4,1,1v7.2C15.3,13.3,14.8,13.7,14.3,13.7z"/>
<g id="suitcase_x5F__x5F_element">
	<path d="M14.3,4.2h-2.8V3.7c0-0.8-0.6-1.4-1.4-1.4H6.5c-0.8,0-1.4,0.6-1.4,1.4v0.5H2.4C1.6,4.2,1,4.8,1,5.5v7.2
		c0,0.8,0.6,1.4,1.4,1.4h11.9c0.8,0,1.4-0.6,1.4-1.4V5.5C15.6,4.8,15,4.2,14.3,4.2z M5.9,3.7c0-0.3,0.3-0.6,0.6-0.6h3.6
		c0.3,0,0.6,0.3,0.6,0.6v0.5H5.9V3.7z M14.9,12.7c0,0.3-0.3,0.6-0.6,0.6H2.4c-0.3,0-0.6-0.3-0.6-0.6V9h5c0.1,0.7,0.7,1.2,1.4,1.2
		h0.4c0.7,0,1.3-0.5,1.4-1.2h5V12.7z M7.5,8.8c0-0.3,0.2-0.5,0.5-0.6c0.1,0,0.1,0,0.2,0h0.4c0.1,0,0.1,0,0.2,0
		c0.3,0.1,0.5,0.3,0.5,0.6c0,0.1,0,0.1,0,0.2C9,9.3,8.8,9.5,8.5,9.5H8.2C7.9,9.5,7.6,9.3,7.6,9C7.6,9,7.5,8.9,7.5,8.8z M14.9,8.3
		H9.8C9.5,7.8,9.1,7.5,8.5,7.5H8.2c-0.5,0-1,0.3-1.2,0.8H1.8V5.5c0-0.3,0.3-0.6,0.6-0.6h11.9c0.3,0,0.6,0.3,0.6,0.6V8.3z"/>
</g>
</svg>
